<?xml version="1.0" encoding="UTF-8" standalone="no"?>
<!-- Created with Inkscape (http://www.inkscape.org/) -->

<svg
   version="1.1"
   id="svg2"
   width="398.66666"
   height="150.66667"
   viewBox="0 0 398.66666 150.66667"
   sodipodi:docname="PRIHODA_logo_NA-2.eps"
   xmlns:inkscape="http://www.inkscape.org/namespaces/inkscape"
   xmlns:sodipodi="http://sodipodi.sourceforge.net/DTD/sodipodi-0.dtd"
   xmlns="http://www.w3.org/2000/svg"
   xmlns:svg="http://www.w3.org/2000/svg">
  <defs
     id="defs6" />
  <sodipodi:namedview
     id="namedview4"
     pagecolor="#ffffff"
     bordercolor="#000000"
     borderopacity="0.25"
     inkscape:showpageshadow="2"
     inkscape:pageopacity="0.0"
     inkscape:pagecheckerboard="0"
     inkscape:deskcolor="#d1d1d1" />
  <g
     id="g8"
     inkscape:groupmode="layer"
     inkscape:label="ink_ext_XXXXXX"
     transform="matrix(1.3333333,0,0,-1.3333333,0,150.66667)">
    <g
       id="g10"
       transform="scale(0.1)">
      <path
         d="m 1198.62,1026.57 c -41.91,0 -95.21,-8.51 -126.35,-21.5 V 633.008 h 70.27 v 105.117 c 15.91,-7.934 36.23,-16.41 69.07,-16.41 77.15,0 125.25,35.168 125.25,152.476 0,117.836 -43,152.379 -138.24,152.379 z m 0.55,-245.398 v 0 c -31.13,0 -56.63,10.883 -56.63,27.832 v 148.508 c 14.7,5.629 36.81,8.453 56.08,8.453 49.87,0 66.34,-14.145 66.34,-93.516 0,-71.379 -16.47,-91.277 -65.79,-91.277"
         style="fill:#21b38c;fill-opacity:1;fill-rule:nonzero;stroke:none"
         id="path12" />
      <path
         d="m 1446.05,996.566 v 21.494 h -70.26 V 729.707 h 70.26 v 199.977 c 0,20.98 31.19,32.339 66.34,32.339 12.47,0 26.61,-1.738 36.81,-3.996 v 66.883 c -10.2,1.09 -19.79,1.66 -29.47,1.66 -41.33,0 -63.46,-14.16 -73.68,-30.004"
         style="fill:#21b38c;fill-opacity:1;fill-rule:nonzero;stroke:none"
         id="path14" />
      <path
         d="m 1582.38,729.707 h 70.26 v 288.353 h -70.26 V 729.707"
         style="fill:#21b38c;fill-opacity:1;fill-rule:nonzero;stroke:none"
         id="path16" />
      <path
         d="m 1845.58,1026.57 c -29.43,0 -60.66,-10.16 -79.42,-19.78 v 100.87 H 1696 V 729.707 h 70.16 v 207.941 c 0,17 26.72,25.493 55.6,25.493 37.91,0 57.76,-11.934 57.76,-73.121 V 729.707 h 70.29 v 165.977 c 0,107.706 -36.84,130.886 -104.23,130.886"
         style="fill:#21b38c;fill-opacity:1;fill-rule:nonzero;stroke:none"
         id="path18" />
      <path
         d="m 2118.73,1026.57 c -91.26,0 -137.19,-33.414 -137.19,-151.312 0,-118.375 45.36,-153.543 137.19,-153.543 92.95,0 138.22,35.168 138.22,153.543 0,117.898 -45.85,151.312 -138.22,151.312 z m 0,-248.164 v 0 c -49.33,0 -64.66,15.875 -64.66,95.785 0,82.707 15.33,95.754 64.66,95.754 50.41,0 65.71,-13.047 65.71,-95.754 0,-79.91 -15.3,-95.785 -65.71,-95.785"
         style="fill:#21b38c;fill-opacity:1;fill-rule:nonzero;stroke:none"
         id="path20" />
      <path
         d="m 2479.46,1010.18 c -15.26,8.48 -36.25,16.39 -69.11,16.39 -77.05,0 -125.28,-35.699 -125.28,-152.379 0,-118.453 43.67,-152.476 138.93,-152.476 41.32,0 94.56,8.476 125.72,20.98 V 1108.8 h -70.26 z m 0,-219.903 v 0 c -14.66,-5.078 -36.25,-8.5 -55.46,-8.5 -49.93,0 -66.34,14.754 -66.34,93.481 0,71.98 15.92,91.851 65.2,91.851 31.74,0 56.6,-10.793 56.6,-27.777 V 790.277"
         style="fill:#21b38c;fill-opacity:1;fill-rule:nonzero;stroke:none"
         id="path22" />
      <path
         d="m 2710.22,1026.57 c -41.41,0 -85.05,-7.3 -115.04,-15.25 l 12.99,-57.832 c 23.75,8.535 55.52,14.188 87.29,14.188 60,0 71.93,-12.473 71.93,-62.899 -24.36,5.067 -47.01,7.922 -71.32,7.922 -67.52,0 -113.36,-13.035 -113.36,-94.656 0,-75.348 30.57,-96.328 121.86,-96.328 40.18,0 94,8.476 130.27,22.695 v 170.016 c 0,86.134 -39.04,112.144 -124.62,112.144 z m 57.17,-241.371 v 0 c -16.42,-5.683 -37.39,-9.633 -57.82,-9.633 -42.48,0 -53.21,6.211 -53.21,45.348 0,36.863 14.15,41.328 53.86,41.328 20.94,0 41.33,-1.679 57.17,-5.07 v -71.973"
         style="fill:#21b38c;fill-opacity:1;fill-rule:nonzero;stroke:none"
         id="path24" />
      <path
         d="m 2931.82,821.824 c -25.07,0 -46.82,-19.554 -46.82,-46.015 0,-26.52 21.75,-46.043 46.82,-46.043 25.16,0 46.63,19.523 46.63,46.043 0,26.461 -21.47,46.015 -46.63,46.015 z m 0,-84.523 v 0 c -20.87,0 -37.31,16.441 -37.31,38.508 0,22.007 16.44,38.48 37.31,38.48 20.66,0 37.14,-16.473 37.14,-38.48 0,-22.067 -16.48,-38.508 -37.14,-38.508"
         style="fill:#21b38c;fill-opacity:1;fill-rule:nonzero;stroke:none"
         id="path26" />
      <path
         d="m 2953.03,787.227 c 0,10.589 -6.4,15.043 -18.96,15.043 h -19.78 v -52.981 h 8.09 v 22.836 h 9.19 l 13.66,-22.836 h 8.94 l -15.04,23.438 c 7.79,0.781 13.9,5.019 13.9,14.5 z m -30.65,-8.079 v 0 16.442 h 10.58 c 5.55,0 11.42,-1.399 11.42,-7.82 0,-8.407 -5.87,-8.622 -12.56,-8.622 h -9.44"
         style="fill:#21b38c;fill-opacity:1;fill-rule:nonzero;stroke:none"
         id="path28" />
      <path
         d="m 1376.25,1058.08 h 276.93 v 49.58 h -276.93 v -49.58"
         style="fill:#21b38c;fill-opacity:1;fill-rule:nonzero;stroke:none"
         id="path30" />
      <path
         d="m 423.703,611.063 c 0,0 38.192,224.289 -76.512,339.074 C 232.375,1064.91 8.01172,1026.71 8.01172,1026.71 c 0,0 -38.21872,-224.284 76.60158,-339.077 114.7817,-114.805 339.0897,-76.57 339.0897,-76.57"
         style="fill:#18739f;fill-opacity:1;fill-rule:nonzero;stroke:none"
         id="path32" />
      <path
         d="m 881.578,1026.71 c 0,0 -224.328,38.2 -339.129,-76.573 -114.765,-114.785 -76.574,-339.074 -76.574,-339.074 0,0 224.324,-38.235 339.125,76.57 114.797,114.793 76.578,339.077 76.578,339.077"
         style="fill:#18739f;fill-opacity:1;fill-rule:nonzero;stroke:none"
         id="path34" />
      <path
         d="m 205.82,529.52 c -74.472,-74.469 -49.699,-220.047 -49.699,-220.047 0,0 145.567,-24.84 220.063,49.703 74.5,74.472 49.714,220.062 49.714,220.062 0,0 -145.605,24.778 -220.078,-49.718"
         style="fill:#21b38c;fill-opacity:1;fill-rule:nonzero;stroke:none"
         id="path36" />
      <path
         d="m 463.734,579.238 c 0,0 -24.804,-145.59 49.676,-220.062 74.496,-74.543 220.094,-49.703 220.094,-49.703 0,0 24.805,145.578 -49.691,220.047 -74.458,74.496 -220.079,49.718 -220.079,49.718"
         style="fill:#21b38c;fill-opacity:1;fill-rule:nonzero;stroke:none"
         id="path38" />
      <path
         d="m 416.77,958.59 c -5.223,0 -10.352,2.43 -13.547,7.086 l -94.582,138.254 c -5.059,7.48 -3.2,17.66 4.265,22.78 7.496,5.07 17.621,3.2 22.809,-4.28 l 94.566,-138.289 c 5.114,-7.45 3.227,-17.664 -4.269,-22.707 -2.778,-1.95 -6.024,-2.844 -9.242,-2.844"
         style="fill:#18739f;fill-opacity:1;fill-rule:nonzero;stroke:none"
         id="path40" />
      <path
         d="m 456.777,958.59 c -3.191,0 -6.422,0.894 -9.214,2.844 -7.461,5.043 -9.391,15.257 -4.333,22.707 l 94.657,138.289 c 5.082,7.48 15.304,9.35 22.726,4.28 7.485,-5.12 9.391,-15.3 4.293,-22.78 L 470.313,965.676 c -3.157,-4.656 -8.344,-7.086 -13.536,-7.086"
         style="fill:#18739f;fill-opacity:1;fill-rule:nonzero;stroke:none"
         id="path42" />
      <path
         d="m 1996.62,35.2148 c 0,-16.5273 -12.83,-29.12105 -31.46,-29.12105 h -31.44 c -18.64,0 -31.46,12.34375 -31.46,29.12105 v 2.3399 c 0,6.2734 2.34,11.6445 5.35,15.125 5.38,5.3555 8.63,7.4726 8.63,9.0937 0,2.086 -3.25,6.2891 -3.25,12.8164 0,9.5547 4.42,13.5157 4.42,15.1329 0,0.9453 -3.5,3.9492 -9.07,11.1683 -3.52,4.437 -6.08,12.125 -6.08,20.734 v 2.117 c 0,22.352 17.72,39.598 41.94,39.598 11.87,0 18.17,-7.688 21.65,-7.688 1.17,0 1.65,0.918 1.65,2.567 V 161 c 0,1.645 0.69,2.34 2.31,2.34 h 13.98 c 1.65,0 2.35,-0.695 2.35,-2.34 v -39.375 c 0,-22.3437 -17.73,-39.5977 -41.94,-39.5977 -1.64,0 -3.74,0.254 -6.77,0.4766 -3.96,-2.3398 -6.05,-4.9023 -6.05,-7.9141 0,-3.5156 2.09,-6.0781 6.3,-7.9179 h 27.48 c 18.63,0 31.46,-12.5938 31.46,-29.1172 z m -31.46,88.5272 v 0 c 0,11.399 -9.09,20.957 -20.96,20.957 -11.87,0 -20.96,-9.558 -20.96,-20.957 v -2.117 c 0,-11.398 9.09,-20.949 20.96,-20.949 11.87,0 20.96,9.551 20.96,20.949 z m 10.47,-86.1873 v 0 c 0,5.5703 -4.88,10.4766 -10.47,10.4766 h -31.44 c -5.6,0 -10.48,-4.9063 -10.48,-10.4766 v -2.3399 c 0,-5.5976 4.65,-10.4765 10.48,-10.4765 h 31.44 c 5.59,0 10.47,4.8789 10.47,10.4765 v 2.3399"
         style="fill:#21b38c;fill-opacity:1;fill-rule:nonzero;stroke:none"
         id="path44" />
      <path
         d="m 240.715,191.051 c 0,-1.617 -0.695,-2.309 -2.328,-2.309 h -26.785 c -1.637,0 -2.336,-0.703 -2.336,-2.34 V 62.9492 c 0,-1.6406 -0.692,-2.332 -2.328,-2.332 h -16.297 c -1.633,0 -2.34,0.6914 -2.34,2.332 V 186.402 c 0,1.637 -0.703,2.34 -2.328,2.34 h -26.782 c -1.632,0 -2.336,0.692 -2.336,2.309 v 13.988 c 0,1.617 0.704,2.316 2.336,2.316 h 79.196 c 1.633,0 2.328,-0.699 2.328,-2.316 v -13.988"
         style="fill:#21b38c;fill-opacity:1;fill-rule:nonzero;stroke:none"
         id="path46" />
      <path
         d="m 311.281,62.9492 c 0,-1.6406 -0.699,-2.332 -2.34,-2.332 h -13.988 c -1.617,0 -2.316,0.6914 -2.316,2.332 v 3.0117 c 0,1.6485 -0.469,2.5664 -1.641,2.5664 -3.484,0 -10.008,-7.9101 -20.734,-7.9101 h -9.074 c -18.629,0 -30.981,12.3359 -30.981,29.1133 v 1.3945 c 0,16.551 12.352,28.895 30.981,28.895 h 26.792 c 1.622,0 2.325,0.695 2.325,2.316 l -0.227,6.519 c -0.703,11.903 -8.867,20.512 -20.973,20.512 -5.355,0 -9.789,-2.094 -12.57,-5.129 -5.367,-5.597 -7,-9.304 -8.625,-9.304 -0.242,0 -0.703,0.222 -1.398,0.449 l -14.207,7.461 c -0.934,0.476 -1.395,1.172 -1.395,1.863 0,1.871 3.02,7.695 10.477,14.219 6.758,5.824 15.84,8.832 27.718,8.832 25.403,0 41.7,-15.602 41.922,-38.903 l 0.254,-30.7378 z m -20.976,38.4338 v 0 c 0,1.609 -0.703,2.308 -2.325,2.308 h -26.792 c -5.825,0 -10.247,-4.4019 -10.247,-10.2262 v -3.7343 c 0,-6.293 4.422,-10.4766 10.247,-10.4766 h 9.074 c 9.086,0 15.855,5.5781 19.816,16.7734 l 0.227,4.4107 v 0.945"
         style="fill:#21b38c;fill-opacity:1;fill-rule:nonzero;stroke:none"
         id="path48" />
      <path
         d="m 346.145,184.059 c -7.215,0 -12.813,5.375 -12.813,12.816 0,7.215 5.598,12.824 12.813,12.824 7.226,0 12.824,-5.609 12.824,-12.824 0,-7.219 -5.598,-12.816 -12.824,-12.816 z m 10.48,-121.1098 v 0 c 0,-1.6406 -0.695,-2.332 -2.336,-2.332 H 337.98 c -1.609,0 -2.308,0.6914 -2.308,2.332 V 163.102 c 0,1.648 0.699,2.339 2.308,2.339 h 16.309 c 1.641,0 2.336,-0.691 2.336,-2.339 V 62.9492"
         style="fill:#21b38c;fill-opacity:1;fill-rule:nonzero;stroke:none"
         id="path50" />
      <path
         d="m 402.02,62.9492 c 0,-1.6406 -0.692,-2.332 -2.332,-2.332 h -16.305 c -1.621,0 -2.317,0.6914 -2.317,2.332 V 205.039 c 0,1.617 0.696,2.316 2.317,2.316 h 16.305 c 1.64,0 2.332,-0.699 2.332,-2.316 V 62.9492"
         style="fill:#21b38c;fill-opacity:1;fill-rule:nonzero;stroke:none"
         id="path52" />
      <path
         d="m 503.098,97.8711 c 0,-23.7461 -16.778,-39.5977 -41.942,-39.5977 -25.136,0 -41.914,15.8516 -41.914,39.5977 v 30.2849 c 0,23.774 16.778,39.602 41.914,39.602 25.164,0 41.942,-16.305 41.942,-39.602 z m -20.957,30.2849 v 0 c 0,11.43 -9.082,20.989 -20.985,20.989 -11.867,0 -20.957,-9.559 -20.957,-20.989 V 97.8711 c 0,-11.4023 9.09,-20.957 20.957,-20.957 11.903,0 20.985,9.5547 20.985,20.957 v 30.2849"
         style="fill:#21b38c;fill-opacity:1;fill-rule:nonzero;stroke:none"
         id="path54" />
      <path
         d="m 575.246,144.938 c 0,-1.618 -0.469,-2.321 -1.394,-2.321 -2.086,0 -5.598,1.621 -11.418,1.621 -13.039,0 -20.961,-7.695 -20.961,-20.734 V 62.9492 c 0,-1.6406 -0.692,-2.332 -2.332,-2.332 h -16.305 c -1.621,0 -2.316,0.6914 -2.316,2.332 V 163.102 c 0,1.648 0.695,2.339 2.316,2.339 h 13.984 c 1.618,0 2.321,-0.691 2.321,-2.339 v -7.442 c 0,-1.863 0.695,-2.808 2.109,-2.808 2.316,0 9.313,12.589 21.879,12.589 9.086,0 12.117,-0.246 12.117,-3.035 v -17.468"
         style="fill:#21b38c;fill-opacity:1;fill-rule:nonzero;stroke:none"
         id="path56" />
      <path
         d="m 609.473,104.863 c 0,-1.617 -0.7,-2.316 -2.317,-2.316 h -37.285 c -1.617,0 -2.332,0.699 -2.332,2.316 v 16.301 c 0,1.649 0.715,2.34 2.332,2.34 h 37.285 c 1.617,0 2.317,-0.691 2.317,-2.34 v -16.301"
         style="fill:#21b38c;fill-opacity:1;fill-rule:nonzero;stroke:none"
         id="path58" />
      <path
         d="m 766.672,62.9492 c 0,-1.6406 -0.699,-2.332 -2.317,-2.332 h -16.328 c -1.617,0 -2.312,0.6914 -2.312,2.332 v 62.8948 c 0,11.402 -9.09,20.961 -18.645,20.961 -9.304,0 -18.64,-10.008 -18.64,-20.961 V 62.9492 c 0,-1.6406 -0.696,-2.332 -2.313,-2.332 h -16.304 c -1.637,0 -2.34,0.6914 -2.34,2.332 v 62.8948 c 0,11.402 -9.082,20.961 -18.641,20.961 -9.305,0 -18.644,-9.785 -18.644,-20.961 V 62.9492 c 0,-1.6406 -0.696,-2.332 -2.313,-2.332 h -16.297 c -1.648,0 -2.34,0.6914 -2.34,2.332 V 163.102 c 0,1.648 0.692,2.339 2.34,2.339 h 13.957 c 1.645,0 2.34,-0.691 2.34,-2.339 v -3.036 c 0,-1.617 0.477,-2.566 1.617,-2.566 3.262,0 10.508,7.941 21.684,7.941 7.215,0 13.262,-1.863 18.39,-5.375 5.348,-3.48 7.688,-6.269 8.61,-6.269 1.172,0 3.515,3.012 8.859,6.523 5.356,3.485 11.871,5.121 20.035,5.121 23.301,0 39.602,-16.296 39.602,-39.597 V 62.9492"
         style="fill:#21b38c;fill-opacity:1;fill-rule:nonzero;stroke:none"
         id="path60" />
      <path
         d="m 867.227,62.9492 c 0,-1.6406 -0.704,-2.332 -2.325,-2.332 h -13.984 c -1.641,0 -2.34,0.6914 -2.34,2.332 v 3.0117 c 0,1.6485 -0.449,2.5664 -1.621,2.5664 -3.5,0 -10.027,-7.9101 -20.727,-7.9101 h -9.085 c -18.641,0 -30.989,12.3359 -30.989,29.1133 v 1.3945 c 0,16.551 12.348,28.895 30.989,28.895 h 26.781 c 1.644,0 2.34,0.695 2.34,2.316 l -0.254,6.519 c -0.696,11.903 -8.828,20.512 -20.949,20.512 -5.356,0 -9.786,-2.094 -12.571,-5.129 -5.379,-5.597 -6.996,-9.304 -8.64,-9.304 -0.219,0 -0.696,0.222 -1.387,0.449 l -14.219,7.461 c -0.918,0.476 -1.394,1.172 -1.394,1.863 0,1.871 3.039,7.695 10.48,14.219 6.77,5.824 15.856,8.832 27.731,8.832 25.386,0 41.679,-15.602 41.937,-38.903 l 0.227,-30.7378 z m -20.961,38.4338 v 0 c 0,1.609 -0.696,2.308 -2.34,2.308 h -26.781 c -5.825,0 -10.254,-4.4019 -10.254,-10.2262 v -3.7343 c 0,-6.293 4.429,-10.4766 10.254,-10.4766 h 9.085 c 9.083,0 15.833,5.5781 19.782,16.7734 l 0.254,4.4107 v 0.945"
         style="fill:#21b38c;fill-opacity:1;fill-rule:nonzero;stroke:none"
         id="path62" />
      <path
         d="m 967.324,62.9492 c 0,-1.6406 -0.695,-2.332 -2.312,-2.332 h -13.989 c -1.644,0 -2.335,0.6914 -2.335,2.332 v 2.7891 c 0,1.6172 -0.45,2.5664 -1.618,2.5664 -3.043,0 -9.562,-7.6875 -23.3,-7.6875 -23.293,0 -40.293,16.2969 -40.293,39.5978 v 25.629 c 0,22.82 16.3,39.597 39.597,39.597 11.871,0 18.172,-7.687 21.653,-7.687 1.171,0 1.64,0.918 1.64,2.566 v 44.719 c 0,1.617 0.703,2.316 2.321,2.316 h 16.324 c 1.617,0 2.312,-0.699 2.312,-2.316 z m -20.957,62.8948 v 0 c 0,11.402 -9.082,20.961 -20.98,20.961 -11.871,0 -20.957,-9.559 -20.957,-20.961 v -25.629 c 0,-11.4298 9.086,-20.9611 20.957,-20.9611 11.898,0 20.98,9.5313 20.98,20.9611 v 25.629"
         style="fill:#21b38c;fill-opacity:1;fill-rule:nonzero;stroke:none"
         id="path64" />
      <path
         d="m 1068.15,111.855 c 0,-1.617 -0.7,-2.339 -2.34,-2.339 h -58.24 c -1.61,0 -2.32,-0.692 -2.32,-2.309 v -9.3359 c 0,-11.4023 9.09,-20.957 20.96,-20.957 5.6,0 10.26,2.0859 12.82,5.1289 5.35,6.2929 6.97,9.7812 8.61,9.7812 0.22,0 0.7,-0.2226 1.39,-0.4765 l 14.69,-7.4414 c 0.92,-0.4688 1.39,-0.918 1.39,-1.6407 0,-1.6172 -2.56,-7.664 -9.78,-14.2187 -6.99,-6.5117 -16.77,-9.7735 -29.12,-9.7735 -25.16,0 -41.937,15.8516 -41.937,39.5977 v 30.2849 c 0,21.211 18.647,39.602 41.937,39.602 23.3,0 41.94,-18.391 41.94,-39.602 z m -23.3,13.989 v 0 c 2.1,0 2.32,1.144 2.32,3.961 0,10.004 -10.01,19.34 -20.96,19.34 -11.17,0 -20.96,-9.559 -20.96,-19.817 0,-2.558 0.22,-3.484 2.32,-3.484 h 37.28"
         style="fill:#21b38c;fill-opacity:1;fill-rule:nonzero;stroke:none"
         id="path66" />
      <path
         d="m 1214.13,63.6484 c 0,-0.6992 0.22,-0.6992 0.22,-0.9453 0,-1.3945 -0.92,-2.0859 -2.57,-2.0859 h -17.47 c -1.4,0 -2.09,0.4687 -2.31,1.6367 l -8.64,30.7422 c -0.22,0.9141 -0.92,1.3945 -2.31,1.3945 h -37.74 c -1.42,0 -2.11,-0.4804 -2.33,-1.3945 l -8.62,-30.7422 c -0.25,-1.168 -0.94,-1.6367 -2.33,-1.6367 h -17.48 c -1.62,0 -2.57,0.6914 -2.57,2.0859 0,0.2461 0.23,0.2461 0.23,0.9453 l 43.33,142.0936 c 0.25,1.168 0.95,1.613 2.34,1.613 h 12.57 c 1.18,0 1.87,-0.445 2.34,-1.613 z m -48.69,96.1956 v 0 l -2.81,10.258 h -0.93 l -2.79,-10.485 -11.42,-43.554 c 0,-0.723 -0.22,-0.723 -0.22,-0.946 0,-1.394 0.93,-2.09 2.57,-2.09 h 24.44 c 1.63,0 2.56,0.696 2.56,2.09 0,0.223 -0.22,0.699 -0.22,0.946 l -11.18,43.781"
         style="fill:#21b38c;fill-opacity:1;fill-rule:nonzero;stroke:none"
         id="path68" />
      <path
         d="m 1234.34,184.059 c -7.23,0 -12.82,5.375 -12.82,12.816 0,7.215 5.59,12.824 12.82,12.824 7.21,0 12.81,-5.609 12.81,-12.824 0,-7.219 -5.6,-12.816 -12.81,-12.816 z m 10.47,-121.1098 v 0 c 0,-1.6406 -0.7,-2.332 -2.34,-2.332 h -16.3 c -1.62,0 -2.32,0.6914 -2.32,2.332 V 163.102 c 0,1.648 0.7,2.339 2.32,2.339 h 16.3 c 1.64,0 2.34,-0.691 2.34,-2.339 V 62.9492"
         style="fill:#21b38c;fill-opacity:1;fill-rule:nonzero;stroke:none"
         id="path70" />
      <path
         d="m 1323.98,144.938 c 0,-1.618 -0.47,-2.321 -1.4,-2.321 -2.08,0 -5.6,1.621 -11.42,1.621 -13.03,0 -20.95,-7.695 -20.95,-20.734 V 62.9492 c 0,-1.6406 -0.7,-2.332 -2.34,-2.332 h -16.3 c -1.62,0 -2.31,0.6914 -2.31,2.332 V 163.102 c 0,1.648 0.69,2.339 2.31,2.339 h 13.98 c 1.62,0 2.32,-0.691 2.32,-2.339 v -7.442 c 0,-1.863 0.7,-2.808 2.11,-2.808 2.32,0 9.32,12.589 21.88,12.589 9.09,0 12.12,-0.246 12.12,-3.035 v -17.468"
         style="fill:#21b38c;fill-opacity:1;fill-rule:nonzero;stroke:none"
         id="path72" />
      <path
         d="m 1463.68,102.547 c 0,-26.1017 -15.83,-41.9298 -41.91,-41.9298 h -46.59 c -1.65,0 -2.34,0.6914 -2.34,2.332 V 205.039 c 0,1.617 0.69,2.316 2.34,2.316 h 46.59 c 25.86,0 41.91,-16.05 41.91,-41.914 z m -20.95,65.211 v 0 c 0,11.894 -9.09,20.984 -20.96,20.984 h -25.63 c -1.62,0 -2.32,-0.703 -2.32,-2.34 V 81.5664 c 0,-1.6172 0.7,-2.3125 2.32,-2.3125 h 25.63 c 11.87,0 20.96,9.5313 20.96,20.9611 v 67.543"
         style="fill:#21b38c;fill-opacity:1;fill-rule:nonzero;stroke:none"
         id="path74" />
      <path
         d="m 1568.44,62.9492 c 0,-1.6406 -0.69,-2.332 -2.32,-2.332 h -13.99 c -1.61,0 -2.31,0.6914 -2.31,2.332 v 2.7891 c 0,1.6172 -0.46,2.5664 -1.64,2.5664 -3.04,0 -9.55,-7.6875 -23.3,-7.6875 -23.29,0 -40.29,16.2969 -40.29,39.5978 v 62.887 c 0,1.648 0.7,2.339 2.34,2.339 h 16.3 c 1.62,0 2.31,-0.691 2.31,-2.339 v -62.887 c 0,-11.4298 9.09,-20.9611 20.98,-20.9611 11.88,0 20.96,9.5313 20.96,20.9611 v 62.887 c 0,1.648 0.7,2.339 2.34,2.339 h 16.3 c 1.63,0 2.32,-0.691 2.32,-2.339 V 62.9492"
         style="fill:#21b38c;fill-opacity:1;fill-rule:nonzero;stroke:none"
         id="path76" />
      <path
         d="m 1665.06,83.9063 c 0.95,-0.4688 1.4,-0.918 1.4,-1.6407 0,-1.6172 -2.57,-7.664 -9.79,-14.2187 -6.97,-6.5117 -16.77,-9.7735 -29.12,-9.7735 -25.14,0 -41.92,15.8516 -41.92,39.5977 v 30.2849 c 0,23.774 16.78,39.602 41.92,39.602 7.25,0 13.76,-1.391 19.81,-3.953 12.35,-5.582 18.87,-14.66 18.87,-19.567 0,-0.695 -0.48,-1.394 -1.39,-1.863 l -14.92,-7.441 c -0.22,-0.254 -0.69,-0.254 -1.17,-0.254 -0.69,0 -1.16,0.476 -1.86,1.394 -5.58,7.696 -9.78,13.071 -19.34,13.071 -11.87,0 -20.96,-9.559 -20.96,-20.989 V 97.8711 c 0,-11.4023 9.09,-20.957 20.96,-20.957 5.6,0 10.25,2.0859 12.81,5.1289 5.36,6.2929 7,9.7812 8.62,9.7812 0.25,0 0.72,-0.2226 1.42,-0.4765 l 14.66,-7.4414"
         style="fill:#21b38c;fill-opacity:1;fill-rule:nonzero;stroke:none"
         id="path78" />
      <path
         d="m 1729.55,60.832 c 0,-2.0859 -0.92,-2.3125 -4.43,-2.3125 -19.34,0 -37.51,16.0821 -37.51,39.3516 v 46.5899 c 0,1.641 -0.7,2.344 -2.32,2.344 h -12.81 c -1.65,0 -2.34,0.695 -2.34,2.34 l 0.47,8.132 26.78,28.43 1.64,0.695 h 7.22 c 1.64,0 2.34,-0.695 2.34,-2.343 v -16.301 c 0,-1.613 0.7,-2.317 2.32,-2.317 h 16.3 c 1.64,0 2.34,-0.691 2.34,-2.339 v -13.957 c 0,-1.645 -0.7,-2.34 -2.34,-2.34 h -16.3 c -1.62,0 -2.32,-0.703 -2.32,-2.344 V 97.8711 c 0,-4.6523 1.62,-9.0859 5.12,-13.4883 2.09,-2.5625 6.75,-4.2109 13.97,-7.2226 1.17,-0.4688 1.87,-1.1641 1.87,-2.336 V 60.832"
         style="fill:#21b38c;fill-opacity:1;fill-rule:nonzero;stroke:none"
         id="path80" />
      <path
         d="m 1757.22,184.059 c -7.22,0 -12.79,5.375 -12.79,12.816 0,7.215 5.57,12.824 12.79,12.824 7.22,0 12.82,-5.609 12.82,-12.824 0,-7.219 -5.6,-12.816 -12.82,-12.816 z M 1767.7,62.9492 v 0 c 0,-1.6406 -0.7,-2.332 -2.32,-2.332 h -16.3 c -1.64,0 -2.34,0.6914 -2.34,2.332 V 163.102 c 0,1.648 0.7,2.339 2.34,2.339 h 16.3 c 1.62,0 2.32,-0.691 2.32,-2.339 V 62.9492"
         style="fill:#21b38c;fill-opacity:1;fill-rule:nonzero;stroke:none"
         id="path82" />
      <path
         d="m 1875.99,62.9492 c 0,-1.6406 -0.69,-2.332 -2.31,-2.332 h -16.3 c -1.65,0 -2.35,0.6914 -2.35,2.332 v 62.8948 c 0,11.402 -9.08,20.961 -20.96,20.961 -11.88,0 -20.98,-9.559 -20.98,-20.961 V 62.9492 c 0,-1.6406 -0.69,-2.332 -2.3,-2.332 h -16.31 c -1.64,0 -2.34,0.6914 -2.34,2.332 V 163.102 c 0,1.648 0.7,2.339 2.34,2.339 h 13.96 c 1.64,0 2.35,-0.691 2.35,-2.339 v -2.782 c 0,-1.648 0.46,-2.566 1.61,-2.566 3.03,0 9.56,7.687 23.3,7.687 23.29,0 40.29,-16.296 40.29,-39.597 V 62.9492"
         style="fill:#21b38c;fill-opacity:1;fill-rule:nonzero;stroke:none"
         id="path84" />
      <path
         d="m 2189.09,66.2813 c 0,-1.6133 -0.92,-2.3165 -2.55,-2.3165 -13.75,0 -21.19,5.3555 -30.27,11.6485 -4.43,3.0156 -6.78,5.1289 -7.7,5.1289 -1.16,0 -3.51,-3.5117 -9.33,-8.8555 -6.27,-5.3554 -15.13,-8.164 -27,-8.164 h -6.99 c -26.09,0 -41.95,16.0703 -41.95,41.4613 v 5.82 c 0,5.605 2.35,12.601 7.22,20.043 3.74,5.824 8.64,8.164 8.64,9.781 0,1.641 -2.09,3.035 -4.9,6.516 -5.82,6.769 -10.96,12.594 -10.96,25.418 0,26.304 15.86,42.383 41.95,42.383 25.86,0 41.93,-16.079 41.93,-41.938 v -4.66 c 0,-6.293 -3.04,-13.734 -8.64,-20.949 -5.57,-6.77 -12.56,-7.469 -12.56,-10.485 0,-1.636 1.86,-2.808 5.34,-5.82 5.83,-5.375 8.64,-9.336 10.48,-9.336 1.65,0 3.26,6.301 10.51,15.856 5.35,7.218 16.3,12.097 30.26,12.097 h 4.21 c 1.62,0 2.31,-0.695 2.31,-2.312 v -16.305 c 0,-1.645 -0.69,-2.344 -2.31,-2.344 h -6.07 c -11.4,0 -20.96,-9.554 -20.96,-20.957 v -4.672 l 0.7,-1.621 c 9.33,-10.4763 19.11,-13.2615 26.81,-16.7732 1.14,-0.4766 1.83,-1.1719 1.83,-2.3203 z M 2126.2,175.547 v 0 c 0,11.422 -9.09,20.953 -20.95,20.953 -11.87,0 -20.96,-9.082 -20.96,-20.953 0,-9.309 6.75,-17.473 20.73,-26.555 13.96,3.485 21.18,11.418 21.18,21.899 z m 6.52,-77.1056 v 0 c -10.47,13.9886 -21.65,23.5156 -34.92,30.7346 l -2.34,0.25 C 2088,124.297 2084.29,118 2084.29,110.313 v -6.993 c 0,-11.8708 9.09,-20.9606 20.96,-20.9606 h 6.99 c 8.14,0 15.13,4.6562 20.73,13.9883 l -0.25,2.0937"
         style="fill:#21b38c;fill-opacity:1;fill-rule:nonzero;stroke:none"
         id="path86" />
      <path
         d="m 2358.72,105.27 c 0,-26.102 -15.83,-41.9302 -41.91,-41.9302 h -46.59 c -1.65,0 -2.34,0.6915 -2.34,2.3321 V 207.762 c 0,1.617 0.69,2.32 2.34,2.32 h 46.59 c 25.86,0 41.91,-16.055 41.91,-41.918 z m -20.95,65.214 v 0 c 0,11.891 -9.09,20.981 -20.96,20.981 h -25.64 c -1.62,0 -2.31,-0.703 -2.31,-2.34 V 84.2891 c 0,-1.6172 0.69,-2.3125 2.31,-2.3125 h 25.64 c 11.87,0 20.96,9.5312 20.96,20.9614 v 67.546"
         style="fill:#21b38c;fill-opacity:1;fill-rule:nonzero;stroke:none"
         id="path88" />
      <path
         d="m 2392.45,186.781 c -7.22,0 -12.82,5.375 -12.82,12.817 0,7.218 5.6,12.824 12.82,12.824 7.22,0 12.82,-5.606 12.82,-12.824 0,-7.215 -5.6,-12.817 -12.82,-12.817 z m 10.48,-121.1091 v 0 c 0,-1.6406 -0.7,-2.3321 -2.34,-2.3321 h -16.31 c -1.61,0 -2.31,0.6915 -2.31,2.3321 V 165.824 c 0,1.645 0.7,2.34 2.31,2.34 h 16.31 c 1.64,0 2.34,-0.695 2.34,-2.34 V 65.6719"
         style="fill:#21b38c;fill-opacity:1;fill-rule:nonzero;stroke:none"
         id="path90" />
      <path
         d="m 2480.7,194.945 c -0.47,-1.168 -1.16,-1.617 -2.34,-1.617 -2.78,0.223 -4.65,0.449 -5.57,0.449 -11.89,0 -20.98,-9.531 -20.98,-20.953 V 160 c 0,-1.617 0.7,-2.309 2.33,-2.309 h 16.31 c 1.64,0 2.34,-0.722 2.34,-2.339 v -13.989 c 0,-1.617 -0.7,-2.312 -2.34,-2.312 h -16.31 c -1.63,0 -2.33,-0.699 -2.33,-2.344 V 65.6719 c 0,-1.6406 -0.7,-2.3321 -2.31,-2.3321 h -16.31 c -1.64,0 -2.34,0.6915 -2.34,2.3321 v 71.0351 c 0,1.645 -0.69,2.344 -2.33,2.344 h -5.84 c -1.61,0 -2.3,0.695 -2.3,2.312 v 13.989 c 0,1.617 0.69,2.339 2.3,2.339 h 5.84 c 1.64,0 2.33,0.692 2.33,2.309 v 10.484 c 0,10.946 3.96,21.204 12.12,29.59 7.44,8.164 17.47,12.348 29.82,12.348 8.61,0 12.79,-0.477 12.79,-3.043 0,-0.223 0,-0.691 -0.22,-0.918 l -4.66,-13.516"
         style="fill:#21b38c;fill-opacity:1;fill-rule:nonzero;stroke:none"
         id="path92" />
      <path
         d="m 2543.32,194.945 c -0.47,-1.168 -1.16,-1.617 -2.33,-1.617 -2.79,0.223 -4.66,0.449 -5.58,0.449 -11.9,0 -20.98,-9.531 -20.98,-20.953 V 160 c 0,-1.617 0.69,-2.309 2.34,-2.309 h 16.3 c 1.64,0 2.34,-0.722 2.34,-2.339 v -13.989 c 0,-1.617 -0.7,-2.312 -2.34,-2.312 h -16.3 c -1.65,0 -2.34,-0.699 -2.34,-2.344 V 65.6719 c 0,-1.6406 -0.7,-2.3321 -2.32,-2.3321 h -16.3 c -1.64,0 -2.34,0.6915 -2.34,2.3321 v 71.0351 c 0,1.645 -0.69,2.344 -2.34,2.344 h -5.82 c -1.62,0 -2.32,0.695 -2.32,2.312 v 13.989 c 0,1.617 0.7,2.339 2.32,2.339 h 5.82 c 1.65,0 2.34,0.692 2.34,2.309 v 10.484 c 0,10.946 3.96,21.204 12.12,29.59 7.44,8.164 17.48,12.348 29.82,12.348 8.61,0 12.79,-0.477 12.79,-3.043 0,-0.223 0,-0.691 -0.22,-0.918 l -4.66,-13.516"
         style="fill:#21b38c;fill-opacity:1;fill-rule:nonzero;stroke:none"
         id="path94" />
      <path
         d="m 2632.03,65.6719 c 0,-1.6406 -0.7,-2.3321 -2.32,-2.3321 h -13.98 c -1.63,0 -2.32,0.6915 -2.32,2.3321 v 2.789 c 0,1.6211 -0.47,2.5625 -1.64,2.5625 -3.04,0 -9.56,-7.6836 -23.3,-7.6836 -23.29,0 -40.29,16.2969 -40.29,39.5982 v 62.886 c 0,1.645 0.7,2.34 2.33,2.34 h 16.31 c 1.62,0 2.31,-0.695 2.31,-2.34 v -62.886 c 0,-11.4302 9.09,-20.9614 20.98,-20.9614 11.88,0 20.96,9.5312 20.96,20.9614 v 62.886 c 0,1.645 0.7,2.34 2.34,2.34 h 16.3 c 1.62,0 2.32,-0.695 2.32,-2.34 V 65.6719"
         style="fill:#21b38c;fill-opacity:1;fill-rule:nonzero;stroke:none"
         id="path96" />
      <path
         d="m 2684.64,152.559 c -10.95,0 -17.02,-4.426 -17.02,-11.895 0,-9.531 8.38,-11.871 25.41,-15.351 24.91,-4.907 37.03,-10.958 37.03,-29.1255 0,-21.2031 -14.9,-35.1914 -38.45,-35.1914 h -6.97 c -23.07,0 -37.98,14.2109 -37.98,23.5469 0,0.6953 0.47,1.1718 1.4,1.6172 l 13.51,6.7695 c 0.7,0.2266 0.95,0.4492 1.17,0.4492 0.22,0 0.92,-0.4492 1.87,-1.3945 5.57,-7.2188 9.78,-13.0391 20.03,-13.0391 h 6.97 c 10.95,0 17.72,6.0469 17.72,13.5078 0,10.0039 -10.03,11.4299 -29.59,15.1369 -22.12,4.426 -32.61,11.195 -32.61,28.64 0,20.512 15.14,34.254 37.51,34.254 h 6.97 c 23.07,0 37.98,-14.214 37.98,-23.523 0,-0.691 -0.47,-1.168 -1.39,-1.617 l -13.52,-6.77 c -0.69,-0.222 -1.17,-0.469 -1.39,-0.469 -0.69,0 -0.95,0.692 -1.64,1.415 -5.83,7.441 -10.01,13.039 -20.04,13.039 h -6.97"
         style="fill:#21b38c;fill-opacity:1;fill-rule:nonzero;stroke:none"
         id="path98" />
      <path
         d="m 2826.91,114.582 c 0,-1.617 -0.7,-2.34 -2.32,-2.34 h -58.24 c -1.64,0 -2.33,-0.695 -2.33,-2.312 v -9.336 c 0,-11.3987 9.08,-20.9573 20.95,-20.9573 5.6,0 10.26,2.0899 12.82,5.1289 5.35,6.293 7,9.7852 8.61,9.7852 0.25,0 0.72,-0.2266 1.42,-0.4766 l 14.66,-7.4453 c 0.94,-0.4687 1.39,-0.9141 1.39,-1.6367 0,-1.6211 -2.56,-7.668 -9.78,-14.2188 -6.97,-6.5156 -16.77,-9.7773 -29.12,-9.7773 -25.13,0 -41.91,15.8555 -41.91,39.5979 v 30.285 c 0,21.211 18.62,39.605 41.91,39.605 23.3,0 41.94,-18.394 41.94,-39.605 z m -23.29,13.984 v 0 c 2.08,0 2.33,1.145 2.33,3.961 0,10.008 -10.03,19.34 -20.98,19.34 -11.18,0 -20.95,-9.558 -20.95,-19.816 0,-2.559 0.21,-3.485 2.33,-3.485 h 37.27"
         style="fill:#21b38c;fill-opacity:1;fill-rule:nonzero;stroke:none"
         id="path100" />
      <path
         d="m 2897.45,147.66 c 0,-1.617 -0.48,-2.316 -1.43,-2.316 -2.09,0 -5.58,1.617 -11.4,1.617 -13.04,0 -20.98,-7.691 -20.98,-20.734 V 65.6719 c 0,-1.6406 -0.69,-2.3321 -2.31,-2.3321 h -16.31 c -1.63,0 -2.33,0.6915 -2.33,2.3321 V 165.824 c 0,1.645 0.7,2.34 2.33,2.34 h 13.97 c 1.64,0 2.34,-0.695 2.34,-2.34 v -7.441 c 0,-1.863 0.69,-2.809 2.09,-2.809 2.34,0 9.31,12.59 21.9,12.59 9.09,0 12.13,-0.246 12.13,-3.031 V 147.66"
         style="fill:#21b38c;fill-opacity:1;fill-rule:nonzero;stroke:none"
         id="path102" />
      <path
         d="m 2940.28,152.559 c -10.95,0 -17.03,-4.426 -17.03,-11.895 0,-9.531 8.39,-11.871 25.42,-15.351 24.9,-4.907 37.03,-10.958 37.03,-29.1255 0,-21.2031 -14.91,-35.1914 -38.45,-35.1914 h -6.97 c -23.07,0 -37.99,14.2109 -37.99,23.5469 0,0.6953 0.48,1.1718 1.4,1.6172 l 13.52,6.7695 c 0.68,0.2266 0.94,0.4492 1.17,0.4492 0.22,0 0.91,-0.4492 1.86,-1.3945 5.57,-7.2188 9.78,-13.0391 20.04,-13.0391 h 6.97 c 10.95,0 17.71,6.0469 17.71,13.5078 0,10.0039 -10.02,11.4299 -29.59,15.1369 -22.12,4.426 -32.6,11.195 -32.6,28.64 0,20.512 15.12,34.254 37.51,34.254 h 6.97 c 23.07,0 37.97,-14.214 37.97,-23.523 0,-0.691 -0.47,-1.168 -1.39,-1.617 l -13.51,-6.77 c -0.7,-0.222 -1.17,-0.469 -1.39,-0.469 -0.7,0 -0.95,0.692 -1.65,1.415 -5.82,7.441 -10,13.039 -20.03,13.039 h -6.97"
         style="fill:#21b38c;fill-opacity:1;fill-rule:nonzero;stroke:none"
         id="path104" />
      <path
         d="m 1273.59,380.242 c 0,-1.664 -0.71,-2.371 -2.37,-2.371 h -19.62 l -2.13,1.188 -48.48,95.066 1.17,-93.883 c 0,-1.664 -0.7,-2.371 -2.36,-2.371 h -22 c -1.65,0 -2.36,0.707 -2.36,2.371 v 144.266 c 0,1.648 0.71,2.355 2.36,2.355 h 19.88 l 2.12,-1.172 48.25,-96.019 -0.94,94.836 c 0,1.648 0.7,2.355 2.36,2.355 h 21.75 c 1.66,0 2.37,-0.707 2.37,-2.355 V 380.242"
         style="fill:#18739f;fill-opacity:1;fill-rule:nonzero;stroke:none"
         id="path106" />
      <path
         d="m 1423.79,417.367 c 0,-25.297 -17.51,-41.867 -43.99,-41.867 h -11.59 c -26.73,0 -44,16.57 -44,41.867 v 70 c 0,25.071 17.5,41.871 44,41.871 h 11.59 c 26.48,0 43.99,-16.8 43.99,-41.871 z m -27.21,70 v 0 c 0,9.703 -7.33,17.031 -16.78,17.031 h -11.59 c -9.46,0 -17.03,-7.562 -17.03,-17.031 v -70 c 0,-9.453 7.57,-17.031 17.03,-17.031 h 11.59 c 9.45,0 16.78,7.332 16.78,17.031 v 70"
         style="fill:#18739f;fill-opacity:1;fill-rule:nonzero;stroke:none"
         id="path108" />
      <path
         d="m 1576.09,380.953 c 0.25,-0.246 0.25,-0.711 0.25,-1.191 0,-1.184 -0.72,-1.891 -2.38,-1.891 h -24.35 c -0.71,0 -1.42,0.473 -2.13,1.664 l -20.82,60.067 -1.89,1.418 h -21.05 c -1.65,0 -2.35,-0.711 -2.35,-2.372 v -58.406 c 0,-1.664 -0.71,-2.371 -2.38,-2.371 h -22.46 c -1.66,0 -2.37,0.707 -2.37,2.371 v 144.266 c 0,1.648 0.71,2.355 2.37,2.355 h 53.22 c 27.19,0 43.99,-16.785 43.99,-43.976 v -2.371 c 0,-11.118 -5.68,-19.868 -10.41,-25.301 -4.5,-4.031 -9.7,-6.863 -9.7,-8.992 v -0.227 z m -29.32,104.059 v 0 c 0,9.222 -7.8,17.031 -17.02,17.031 h -26.03 c -1.65,0 -2.35,-0.711 -2.35,-2.371 v -31.461 c 0,-1.648 0.7,-2.356 2.35,-2.356 h 26.03 c 9.22,0 17.02,7.563 17.02,17.032 v 2.125"
         style="fill:#18739f;fill-opacity:1;fill-rule:nonzero;stroke:none"
         id="path110" />
      <path
         d="m 1700.98,504.398 c 0,-1.648 -0.71,-2.355 -2.35,-2.355 h -25.79 c -1.66,0 -2.37,-0.711 -2.37,-2.371 v -119.43 c 0,-1.664 -0.71,-2.371 -2.37,-2.371 h -22.22 c -1.66,0 -2.37,0.707 -2.37,2.371 v 119.43 c 0,1.66 -0.71,2.371 -2.37,2.371 h -25.78 c -1.65,0 -2.35,0.707 -2.35,2.355 v 20.11 c 0,1.648 0.7,2.355 2.35,2.355 h 83.27 c 1.64,0 2.35,-0.707 2.35,-2.355 v -20.11"
         style="fill:#18739f;fill-opacity:1;fill-rule:nonzero;stroke:none"
         id="path112" />
      <path
         d="m 1846.91,380.242 c 0,-1.664 -0.71,-2.371 -2.36,-2.371 h -22.23 c -1.67,0 -2.38,0.707 -2.38,2.371 v 58.406 c 0,1.661 -0.7,2.372 -2.35,2.372 h -44 c -1.66,0 -2.37,-0.711 -2.37,-2.372 v -58.406 c 0,-1.664 -0.71,-2.371 -2.35,-2.371 h -22.49 c -1.64,0 -2.35,0.707 -2.35,2.371 v 144.266 c 0,1.648 0.71,2.355 2.35,2.355 h 22.49 c 1.64,0 2.35,-0.707 2.35,-2.355 v -56.297 c 0,-1.648 0.71,-2.356 2.37,-2.356 h 44 c 1.65,0 2.35,0.708 2.35,2.356 v 56.297 c 0,1.648 0.71,2.355 2.38,2.355 h 22.23 c 1.65,0 2.36,-0.707 2.36,-2.355 V 380.242"
         style="fill:#18739f;fill-opacity:1;fill-rule:nonzero;stroke:none"
         id="path114" />
      <path
         d="m 2060.25,380.953 c 0,-0.711 0.23,-0.711 0.23,-0.957 0,-1.418 -0.94,-2.125 -2.6,-2.125 H 2034 c -1.42,0 -2.13,0.473 -2.37,1.664 l -7.09,24.82 c -0.24,0.958 -0.95,1.415 -2.37,1.415 h -33.81 c -1.42,0 -2.15,-0.457 -2.38,-1.415 l -7.09,-24.82 c -0.23,-1.191 -0.95,-1.664 -2.36,-1.664 h -23.65 c -1.67,0 -2.6,0.707 -2.6,2.125 0,0.246 0.22,0.246 0.22,0.957 l 44,144.266 c 0.48,1.187 1.18,1.644 2.37,1.644 h 17.04 c 1.16,0 1.87,-0.457 2.35,-1.644 z m -51.8,83.949 v 0 c -0.24,1.661 -0.94,5.684 -2.6,13.008 h -0.71 l -2.83,-13.008 -8.04,-31.211 c 0,-0.25 -0.25,-0.707 -0.25,-0.957 0,-1.418 0.96,-2.125 2.61,-2.125 h 17.28 c 1.64,0 2.57,0.707 2.57,2.125 0,0.25 -0.22,0.707 -0.22,0.957 l -7.81,31.211"
         style="fill:#18739f;fill-opacity:1;fill-rule:nonzero;stroke:none"
         id="path116" />
      <path
         d="m 2216.82,380.242 c 0,-1.664 -0.71,-2.371 -2.37,-2.371 h -21.75 c -1.66,0 -2.38,0.707 -2.38,2.371 l 2.14,92.238 -26.73,-72.851 c -0.94,-0.941 -1.65,-1.418 -2.12,-1.418 h -12.06 c -0.96,0 -1.67,0.477 -2.14,1.418 l -26.72,72.851 2.13,-92.238 c 0,-1.664 -0.71,-2.371 -2.37,-2.371 h -21.99 c -1.67,0 -2.37,0.707 -2.37,2.371 v 144.266 c 0,1.648 0.7,2.355 2.37,2.355 h 20.34 c 0.7,-0.226 1.41,-0.707 2.12,-1.418 l 34.54,-93.648 34.52,93.648 c 0.72,0.711 1.42,1.192 2.13,1.418 h 20.34 c 1.66,0 2.37,-0.707 2.37,-2.355 V 380.242"
         style="fill:#18739f;fill-opacity:1;fill-rule:nonzero;stroke:none"
         id="path118" />
      <path
         d="m 2360.63,380.242 c 0,-1.664 -0.71,-2.371 -2.38,-2.371 h -83.48 c -1.66,0 -2.36,0.707 -2.36,2.371 v 144.266 c 0,1.648 0.7,2.355 2.36,2.355 h 83.48 c 1.67,0 2.38,-0.707 2.38,-2.355 v -20.11 c 0,-1.648 -0.71,-2.355 -2.38,-2.355 h -56.27 c -1.67,0 -2.38,-0.711 -2.38,-2.371 v -31.461 c 0,-1.648 0.71,-2.356 2.38,-2.356 h 46.11 c 1.65,0 2.36,-0.707 2.36,-2.371 v -20.093 c 0,-1.664 -0.71,-2.371 -2.36,-2.371 h -46.11 c -1.67,0 -2.38,-0.711 -2.38,-2.372 v -33.582 c 0,-1.652 0.71,-2.355 2.38,-2.355 h 56.27 c 1.67,0 2.38,-0.711 2.38,-2.375 v -20.094"
         style="fill:#18739f;fill-opacity:1;fill-rule:nonzero;stroke:none"
         id="path120" />
      <path
         d="m 2511.05,380.953 c 0.24,-0.246 0.24,-0.711 0.24,-1.191 0,-1.184 -0.71,-1.891 -2.38,-1.891 h -24.36 c -0.7,0 -1.41,0.473 -2.12,1.664 l -20.8,60.067 -1.9,1.418 h -21.05 c -1.66,0 -2.37,-0.711 -2.37,-2.372 v -58.406 c 0,-1.664 -0.71,-2.371 -2.36,-2.371 h -22.48 c -1.65,0 -2.36,0.707 -2.36,2.371 v 144.266 c 0,1.648 0.71,2.355 2.36,2.355 h 53.22 c 27.2,0 43.99,-16.785 43.99,-43.976 v -2.371 c 0,-11.118 -5.68,-19.868 -10.41,-25.301 -4.49,-4.031 -9.68,-6.863 -9.68,-8.992 v -0.227 z m -29.33,104.059 v 0 c 0,9.222 -7.81,17.031 -17.03,17.031 h -26.01 c -1.66,0 -2.37,-0.711 -2.37,-2.371 v -31.461 c 0,-1.648 0.71,-2.356 2.37,-2.356 h 26.01 c 9.22,0 17.03,7.563 17.03,17.032 v 2.125"
         style="fill:#18739f;fill-opacity:1;fill-rule:nonzero;stroke:none"
         id="path122" />
      <path
         d="m 2584.61,380.242 c 0,-1.664 -0.7,-2.371 -2.37,-2.371 h -22.47 c -1.66,0 -2.37,0.707 -2.37,2.371 v 144.266 c 0,1.648 0.71,2.355 2.37,2.355 h 22.47 c 1.67,0 2.37,-0.707 2.37,-2.355 V 380.242"
         style="fill:#18739f;fill-opacity:1;fill-rule:nonzero;stroke:none"
         id="path124" />
      <path
         d="m 2731.02,405.77 c 0.94,-0.457 1.41,-1.168 1.41,-1.875 0,-2.606 -3.07,-9.227 -11.34,-17.508 -7.1,-7.328 -17.28,-10.887 -30.52,-10.887 h -11.58 c -26.74,0 -43.99,16.57 -43.99,41.867 v 70 c 0,25.071 17.48,41.871 43.99,41.871 h 11.58 c 10.64,0 19.4,-2.375 26.73,-7.808 9.45,-6.856 15.13,-17.262 15.13,-20.098 0,-0.707 -0.47,-1.43 -1.41,-1.894 l -20.59,-10.18 c -0.23,-0.227 -0.7,-0.227 -1.17,-0.227 -1.66,0 -1.66,1.418 -3.31,4.02 -4.03,7.328 -8.51,11.347 -15.38,11.347 h -11.58 c -9.47,0 -17.03,-7.562 -17.03,-17.031 v -70 c 0,-9.453 7.56,-17.031 17.03,-17.031 h 11.58 c 6.87,0 11.11,3.789 15.14,11.352 1.41,3.078 2.59,4.496 3.55,4.496 0.47,0 0.94,0 1.17,-0.235 l 20.59,-10.179"
         style="fill:#18739f;fill-opacity:1;fill-rule:nonzero;stroke:none"
         id="path126" />
      <path
         d="m 2874.81,380.953 c 0,-0.711 0.23,-0.711 0.23,-0.957 0,-1.418 -0.94,-2.125 -2.6,-2.125 h -23.89 c -1.41,0 -2.12,0.473 -2.37,1.664 l -7.08,24.82 c -0.25,0.958 -0.95,1.415 -2.37,1.415 h -33.82 c -1.41,0 -2.14,-0.457 -2.37,-1.415 l -7.09,-24.82 c -0.24,-1.191 -0.95,-1.664 -2.36,-1.664 h -23.65 c -1.67,0 -2.6,0.707 -2.6,2.125 0,0.246 0.22,0.246 0.22,0.957 l 44,144.266 c 0.48,1.187 1.18,1.644 2.37,1.644 h 17.03 c 1.17,0 1.88,-0.457 2.36,-1.644 z m -51.8,83.949 v 0 c -0.23,1.661 -0.94,5.684 -2.6,13.008 h -0.71 l -2.83,-13.008 -8.04,-31.211 c 0,-0.25 -0.25,-0.707 -0.25,-0.957 0,-1.418 0.96,-2.125 2.61,-2.125 h 17.27 c 1.65,0 2.59,0.707 2.59,2.125 0,0.25 -0.23,0.707 -0.23,0.957 l -7.81,31.211"
         style="fill:#18739f;fill-opacity:1;fill-rule:nonzero;stroke:none"
         id="path128" />
      <path
         d="M 2974.45,584.453 H 1072.87 v 7.887 h 1901.58 v -7.887"
         style="fill:#18739f;fill-opacity:1;fill-rule:nonzero;stroke:none"
         id="path130" />
      <path
         d="M 2974.45,311.75 H 1072.87 v 7.883 h 1901.58 v -7.883"
         style="fill:#18739f;fill-opacity:1;fill-rule:nonzero;stroke:none"
         id="path132" />
    </g>
  </g>
</svg>
